<svg width="1286" height="769" viewBox="0 0 1286 769" fill="none" xmlns="http://www.w3.org/2000/svg">
<path fill-rule="evenodd" clip-rule="evenodd" d="M688.94 769L1185.55 769C1240.78 769 1285.55 724.228 1285.55 669L1285.55 100C1285.55 44.7716 1240.78 1.9804e-05 1185.55 2.4356e-05L1163.27 2.75906e-05C1218.5 2.30386e-05 1263.27 44.7716 1263.27 100L1263.27 668C1263.27 723.228 1218.5 768 1163.27 768L737.412 768C682.183 768 637.412 723.228 637.412 668V652.46C637.412 597.232 592.64 552.461 537.412 552.461L116.971 552.461C61.7421 552.461 16.9707 507.689 16.9707 452.461L16.9707 100C16.9707 44.7716 61.7422 0.00011838 116.971 0.000113828H99.9999C44.7715 0.00011838 -6.71562e-05 44.7716 -6.40789e-05 100L-3.56332e-05 493.5C-3.16408e-05 548.728 44.7716 593.5 100 593.5L513.44 593.5C561.903 593.5 601.19 632.787 601.19 681.25C601.19 729.713 640.477 769 688.94 769Z" fill="#39556E"/>
</svg>
