<svg width="45" height="43" viewBox="0 0 45 43" fill="none" xmlns="http://www.w3.org/2000/svg">
<path d="M31.3615 33.6003C31.3996 33.5966 31.437 33.5966 31.4726 33.6003H35.3542C36.9009 33.5713 36.9009 35.9068 35.3542 35.8814H31.4726C29.9699 35.9351 29.8625 33.6914 31.3615 33.6003ZM21.625 33.6003C21.6631 33.5966 21.7041 33.5966 21.7415 33.6003H25.617C27.1656 33.5713 27.1656 35.9068 25.617 35.8814H21.7415C20.2352 35.9448 20.1163 33.6914 21.625 33.6003ZM31.4726 28.4363H35.3542C36.9009 28.4103 36.9009 30.7464 35.3542 30.7181H31.4726C29.9265 30.7458 29.9265 28.4103 31.4726 28.4363ZM21.7415 28.4363H25.617C27.1638 28.4103 27.1638 30.7464 25.617 30.7181H21.7415C20.1918 30.7458 20.1918 28.4103 21.7415 28.4363ZM31.4726 23.2754H35.3542C36.9009 23.2464 36.9009 25.5818 35.3542 25.5541H31.4726C29.9265 25.5818 29.9265 23.2458 31.4726 23.2754ZM21.7415 23.2754H25.617C27.1638 23.2464 27.1638 25.5818 25.617 25.5541H21.7415C20.1918 25.5818 20.1918 23.2458 21.7415 23.2754ZM23.9762 2.14698H37.7868C37.8151 2.14698 37.8562 2.15603 37.8562 2.26647V19.6515C37.8562 19.7607 37.8151 19.774 37.7868 19.774H19.3089C19.2769 19.774 19.2359 19.7613 19.2359 19.6515V6.46185L23.9762 2.14698ZM23.599 0.154297C23.3504 0.154297 23.1108 0.247836 22.9298 0.414999L17.5703 5.28688C17.3627 5.47516 17.2462 5.7425 17.2426 6.02252V7.29525L17.2305 7.29827V36.2151C17.2305 37.0666 16.7628 37.8331 16.1871 38.2736C15.6144 38.7105 14.9391 38.8964 14.2626 38.8964H5.37216C4.69687 38.8964 4.01675 38.7105 3.44164 38.267C2.87014 37.827 2.40788 37.06 2.40788 36.2151V10.5233C1.0404 10.9125 0 12.1388 0 13.6197V39.5343C0 41.335 1.54068 42.7683 3.34146 42.7683H41.0178C42.8186 42.7683 44.3556 41.335 44.3556 39.5343V13.7513C44.3556 11.9463 42.8186 10.5196 41.0178 10.5196H39.8483V2.26647C39.8483 1.13797 38.937 0.154297 37.7868 0.154297H23.599Z" fill="#DEE3E5"/>
<path d="M22.9885 8.31672C22.3506 8.30706 21.8322 8.81941 21.8322 9.45427C21.8322 10.0921 22.3506 10.6045 22.9885 10.5954H34.1058C34.7448 10.6045 35.2632 10.0927 35.2632 9.45427C35.2632 8.81941 34.7448 8.30706 34.1058 8.31672H22.9885ZM22.9885 12.9937C22.3506 12.9834 21.8322 13.4964 21.8322 14.1348C21.8322 14.7691 22.3506 15.2821 22.9885 15.276H28.071C28.7064 15.2821 29.2285 14.7697 29.2285 14.1348C29.2285 13.4964 28.7064 12.984 28.071 12.9937H22.9885ZM5.35365 5.39648C4.71215 5.39648 4.29395 5.75133 4.29395 6.17316V36.2149C4.29395 36.6355 4.71215 36.9904 5.35365 36.9904H14.2453C14.8832 36.9904 15.311 36.6355 15.311 36.2149V6.17316C15.311 5.75133 14.8832 5.39648 14.2453 5.39648H5.35365Z" fill="#DEE3E5"/>
</svg>
