<svg width="50" height="40" viewBox="0 0 50 40" fill="none" xmlns="http://www.w3.org/2000/svg">
<path d="M40.2638 23.2937L37.3625 19.8814C35.49 17.6786 35.7781 15.8819 35.8552 13.0194C35.8709 12.4343 35.4904 11.9075 34.9275 11.7468L31.5712 10.7891C30.884 10.5931 30.1489 10.9926 29.9887 11.689C29.4313 14.1131 27.422 16.4255 25.0289 16.4255C22.628 16.4255 20.6137 14.1664 20.0634 11.7542C19.9068 11.0672 19.1832 10.6699 18.5024 10.8515L15.1013 11.7586C14.5271 11.9118 14.1359 12.4427 14.1527 13.037C14.2285 15.7011 14.4712 17.7535 12.6452 19.9116L9.72731 23.3604C8.3809 24.9518 7.64209 26.9689 7.64209 29.0534V36.3066C7.64209 38.3192 9.27365 39.9508 11.2863 39.9508H38.6801C40.7431 39.9508 42.4154 38.2785 42.4154 36.2156V29.1463C42.4155 27.0019 41.6528 24.9274 40.2638 23.2937ZM25.0286 33.5256C21.5602 33.5256 18.7485 30.7138 18.7485 27.2452C18.7485 23.7766 21.5602 20.9647 25.0286 20.9647C28.4973 20.9647 31.3091 23.7766 31.3091 27.2452C31.3091 30.7138 28.4973 33.5256 25.0286 33.5256Z" fill="#DEE3E5"/>
<path d="M47.6756 7.4946C42.9617 3.5761 34.1956 0.825789 25.0291 0.826172C15.8623 0.825789 7.0964 3.5761 2.38249 7.4946C0.76895 8.83577 -0.256028 13.1214 1.19718 15.9423C2.25091 17.9872 3.49498 18.8601 5.72022 18.1817L9.43048 16.6568C10.8842 16.2854 11.2505 15.3454 10.9446 13.6974C10.2729 10.0791 11.276 8.92634 14.5292 8.10092C17.5648 7.33056 21.7645 7.23832 25.029 7.23832C28.2932 7.23832 32.4928 7.33056 35.5286 8.10092C38.7817 8.92634 39.7847 10.0791 39.1131 13.6974C38.8072 15.3454 39.1735 16.2854 40.6272 16.6568L44.3373 18.1817C46.5628 18.8601 47.807 17.9872 48.8605 15.9423C50.314 13.1216 49.2889 8.83577 47.6756 7.4946Z" fill="#DEE3E5"/>
</svg>
