<svg width="31" height="43" viewBox="0 0 31 43" fill="none" xmlns="http://www.w3.org/2000/svg">
<path fill-rule="evenodd" clip-rule="evenodd" d="M30.9999 15.4851C31.0048 18.6291 30.0509 21.6985 28.2673 24.2775H28.2716L17.5614 41.1847C17.3641 41.4964 17.0921 41.7529 16.7705 41.9306C16.4489 42.1083 16.0881 42.2015 15.7214 42.2015C15.3547 42.2015 14.9939 42.1083 14.6723 41.9306C14.3507 41.7529 14.0787 41.4964 13.8814 41.1847L3.22357 24.3458C1.84241 22.3658 0.943615 20.0855 0.600069 17.6899C0.256524 15.2943 0.477901 12.8507 1.24625 10.5575C2.0146 8.26423 3.30828 6.18582 5.02238 4.49081C6.73648 2.7958 8.82274 1.53191 11.112 0.801654C13.4012 0.0713954 15.8289 -0.104676 18.1982 0.287719C20.5676 0.680115 22.8118 1.62993 24.7489 3.06013C26.6861 4.49034 28.2616 6.36066 29.3476 8.51942C30.4337 10.6782 30.9998 13.0646 30.9999 15.4851ZM15.7214 24.2864C18.0369 24.2864 20.2576 23.3591 21.8949 21.7085C23.5322 20.058 24.452 17.8193 24.452 15.4851C24.452 13.1509 23.5322 10.9123 21.8949 9.2617C20.2576 7.61115 18.0369 6.68388 15.7214 6.68388C13.4059 6.68388 11.1852 7.61115 9.54794 9.2617C7.91064 10.9123 6.99081 13.1509 6.99081 15.4851C6.99081 17.8193 7.91064 20.058 9.54794 21.7085C11.1852 23.3591 13.4059 24.2864 15.7214 24.2864Z" fill="#DEE3E5"/>
</svg>
