<svg width="46" height="35" viewBox="0 0 46 35" fill="none" xmlns="http://www.w3.org/2000/svg">
<path d="M0 4.09383V2.90265C0 2.13282 0.302901 1.39452 0.842068 0.850168C1.38124 0.305815 2.1125 0 2.875 0L43.125 0C43.8875 0 44.6188 0.305815 45.1579 0.850168C45.6971 1.39452 46 2.13282 46 2.90265V4.09383L23 18.6071L0 4.09383ZM23.7619 21.5497C23.5334 21.6937 23.2694 21.77 23 21.77C22.7306 21.77 22.4667 21.6937 22.2381 21.5497L0 7.51679V31.9292C0 32.699 0.302901 33.4373 0.842068 33.9817C1.38124 34.526 2.1125 34.8319 2.875 34.8319H43.125C43.8875 34.8319 44.6188 34.526 45.1579 33.9817C45.6971 33.4373 46 32.699 46 31.9292V7.51679L23.7619 21.5497Z" fill="#DEE3E5"/>
</svg>
