<svg width="27" height="46" viewBox="0 0 27 46" fill="none" xmlns="http://www.w3.org/2000/svg">
<path d="M22.0933 1.78027C21.8074 1.78054 21.5212 1.78107 21.2353 1.78107C20.7369 1.78107 20.2389 1.78081 19.7407 1.78081C20.2389 1.78081 20.7371 1.78107 21.2353 1.78081C21.5212 1.78081 21.8074 1.78054 22.0933 1.78054V1.78027Z" fill="#DEE3E5"/>
<path d="M26.4983 4.85599C26.4983 4.60134 26.4975 4.34611 26.4817 4.09174C26.3414 1.82193 24.4622 0.00665267 22.2227 0.00407171C16.4139 -0.00309763 10.6047 0.00120397 4.79554 0.00206429C4.18692 0.00206429 3.59865 0.119928 3.05279 0.392937C1.33463 1.25268 0.502694 2.67451 0.502128 4.60621C0.500715 10.7317 0.50128 16.8577 0.50128 22.9832H0.50015C0.50015 29.076 0.499019 35.1685 0.502976 41.261C0.502976 41.6143 0.507217 41.9739 0.568276 42.3198C0.956402 44.5236 2.70961 45.9985 4.92642 45.9991C10.6152 46.0005 16.3045 46 21.9932 45.9994C24.6207 45.9991 26.4989 44.1035 26.4995 41.444C26.5006 29.2475 26.4998 17.0516 26.4986 4.85571L26.4983 4.85599ZM10.5897 1.51824C11.0318 1.51709 11.4742 1.51709 11.9161 1.51709C12.4441 1.51709 12.9716 1.51738 13.5002 1.51738C13.8033 1.51738 14.1066 1.51709 14.4096 1.51652C15.0765 1.51623 15.7433 1.51565 16.4102 1.51738C16.9247 1.51881 17.2517 1.81992 17.2495 2.28105C17.2472 2.74391 16.9213 3.05391 16.4124 3.05505C14.4721 3.05907 12.5318 3.05964 10.5914 3.05592C10.0837 3.05477 9.75325 2.74046 9.75127 2.28363C9.74901 1.82422 10.0792 1.51938 10.5894 1.51824H10.5897ZM13.4963 44.3393C12.4792 44.3395 11.6147 43.4612 11.6184 42.4311C11.6224 41.3689 12.4775 40.4919 13.5065 40.4951C14.5185 40.4979 15.3744 41.37 15.3857 42.4093C15.3973 43.4569 14.5334 44.3387 13.4966 44.3395L13.4963 44.3393ZM24.1475 38.3474C17.0499 38.3397 9.95198 38.3397 2.85434 38.3474C2.5694 38.3477 2.48572 38.2794 2.48572 37.9809C2.49336 26.9697 2.49223 15.9587 2.49223 4.94747V4.58987H24.5091V4.94948C24.5094 15.9607 24.5082 26.9717 24.5164 37.9829C24.5167 38.2832 24.4305 38.348 24.1478 38.3477L24.1475 38.3474Z" fill="#DEE3E5"/>
</svg>
